<svg width="76" height="21" fill="none" xmlns="http://www.w3.org/2000/svg"><path d="M8.128.4c1.885 0 3.472.635 4.76 1.904 1.288 1.27 1.932 2.828 1.932 4.676 0 1.848-.644 3.407-1.932 4.676-1.288 1.27-2.875 1.904-4.76 1.904H4.684V20H.82V.4h7.308zm0 9.548c.821 0 1.503-.28 2.044-.84.541-.579.812-1.288.812-2.128 0-.859-.27-1.568-.812-2.128-.541-.56-1.223-.84-2.044-.84H4.684v5.936h3.444zM27.158 6h3.612v14h-3.612v-1.652c-1.083 1.363-2.604 2.044-4.564 2.044-1.867 0-3.472-.71-4.816-2.128-1.325-1.437-1.988-3.192-1.988-5.264s.663-3.817 1.988-5.236c1.344-1.437 2.95-2.156 4.816-2.156 1.96 0 3.481.681 4.564 2.044V6zm-6.664 9.856c.728.728 1.652 1.092 2.772 1.092 1.12 0 2.044-.364 2.772-1.092.747-.747 1.12-1.699 1.12-2.856 0-1.157-.373-2.1-1.12-2.828-.728-.747-1.652-1.12-2.772-1.12-1.12 0-2.044.373-2.772 1.12-.728.728-1.092 1.67-1.092 2.828 0 1.157.364 2.11 1.092 2.856zM42.109 5.608c1.53 0 2.791.513 3.78 1.54 1.008 1.027 1.512 2.445 1.512 4.256V20H43.79v-8.148c0-.933-.252-1.643-.756-2.128-.504-.504-1.176-.756-2.016-.756-.933 0-1.68.29-2.24.868-.56.579-.84 1.447-.84 2.604V20h-3.612V6h3.612v1.568c.878-1.307 2.268-1.96 4.172-1.96zm16.664 3.864H55.61v5.824c0 .485.122.84.364 1.064.243.224.598.355 1.064.392.467.019 1.046.01 1.736-.028V20c-2.482.28-4.237.047-5.264-.7-1.008-.747-1.512-2.081-1.512-4.004V9.472h-2.436V6h2.436V3.172L55.61 2.08V6h3.164v3.472zm14.318 8.792c-1.438 1.419-3.192 2.128-5.264 2.128s-3.827-.71-5.264-2.128c-1.419-1.437-2.128-3.192-2.128-5.264s.709-3.817 2.128-5.236C64 6.327 65.755 5.608 67.827 5.608s3.826.719 5.264 2.156c1.437 1.419 2.156 3.164 2.156 5.236 0 2.072-.719 3.827-2.156 5.264zm-7.98-2.492c.728.728 1.633 1.092 2.716 1.092 1.082 0 1.988-.364 2.716-1.092.728-.728 1.092-1.652 1.092-2.772 0-1.12-.364-2.044-1.092-2.772-.728-.728-1.634-1.092-2.716-1.092-1.083 0-1.988.364-2.716 1.092-.71.728-1.064 1.652-1.064 2.772 0 1.12.354 2.044 1.064 2.772z" fill="#fff"/></svg>